<?xml version="1.0" encoding="UTF-8"?>
<!DOCTYPE svg PUBLIC "-//W3C//DTD SVG 1.1//EN" "http://www.w3.org/Graphics/SVG/1.1/DTD/svg11.dtd">
<!-- Creator: CorelDRAW -->
<svg xmlns="http://www.w3.org/2000/svg" xml:space="preserve" width="8.66666in" height="8.66666in" style="shape-rendering:geometricPrecision; text-rendering:geometricPrecision; image-rendering:optimizeQuality; fill-rule:evenodd; clip-rule:evenodd"
viewBox="0 0 8.66666 8.66666"
 xmlns:xlink="http://www.w3.org/1999/xlink">
 <defs>
  <style type="text/css">
   <![CDATA[
    .fil1 {fill:black}
    .fil0 {fill:black;fill-rule:nonzero}
   ]]>
  </style>
 </defs>
 <g id="Layer_x0020_1">
  <metadata id="CorelCorpID_0Corel-Layer"/>
  <path class="fil0" d="M2.23343 4.75705l-0.382035 -0.0291378c-0.0078189,-0.000188976 -0.0157402,-0.00153937 -0.0235394,-0.00415748 -0.0418819,-0.014063 -0.0644331,-0.0594252 -0.0503701,-0.101307l0.000240157 7.87402e-005c0.126917,-0.377866 0.365567,-0.651937 0.618449,-0.847854 0.180417,-0.139772 0.367622,-0.239445 0.526059,-0.308484 -0.0373819,0.0494213 -0.0737126,0.0996417 -0.108976,0.150598l-0.173146 0.250181 0.0174134 -0.00843701c-0.0177283,0.0293937 -0.035126,0.0589843 -0.0521929,0.0887677 -0.106366,0.18561 -0.199839,0.378402 -0.281453,0.576106l-0.000594488 -4.72441e-005 -0.0218228 0.0545591c-0.0209449,0.0523622 -0.041063,0.105059 -0.0603858,0.158043 -0.00256299,0.00702756 -0.00511024,0.0140512 -0.00764567,0.0210906z"/>
  <path class="fil0" d="M3.93874 6.81526l-0.0291457 -0.382122c0.00704331,-0.0025 0.0140748,-0.00502756 0.0210984,-0.00759055 0.0529843,-0.0193228 0.105677,-0.0394449 0.158039,-0.0603898l0.0544764 -0.0217913 -4.33071e-005 -0.000547244c0.197736,-0.081622 0.390555,-0.175102 0.576189,-0.281484 0.0299055,-0.0171378 0.059622,-0.0346102 0.0891339,-0.0524173l-0.00835039 0.0172756 0.24976 -0.17285c0.0509528,-0.0352638 0.101169,-0.0715906 0.150591,-0.108972 -0.0690394,0.158449 -0.16872,0.345681 -0.308512,0.526118 -0.195917,0.252882 -0.469992,0.491524 -0.84785,0.618441l7.87402e-005 0.000240157c-0.0418819,0.014063 -0.0872441,-0.00848819 -0.101307,-0.0503701 -0.00261811,-0.00779921 -0.0039685,-0.0157205 -0.00415748,-0.0235394z"/>
  <path class="fil0" d="M3.02993 6.43364l-0.796902 -0.796906c-0.0464252,-0.0464252 -0.0696417,-0.107819 -0.0696457,-0.169327l-0.000311024 0c0,-0.0605079 0.0227126,-0.121075 0.068126,-0.167476l0.00144882 -0.00150787 0.0496299 0.049626 0.0510394 -0.0243701c0.0215315,-0.0102835 0.045189,-0.0155591 0.0690433,-0.0155591 0.0424213,0 0.0827402,0.0165 0.11276,0.0465236l0.796906 0.796906c0.0300197,0.0300197 0.0465236,0.0703386 0.0465236,0.112756 0,0.0238504 -0.00527559,0.0475039 -0.0155591,0.0690354l-0.024378 0.0510394 0.0496102 0.0496181c-0.0465906,0.0463937 -0.107811,0.0695945 -0.168965,0.0695945 -0.061315,0 -0.122693,-0.0233189 -0.169327,-0.0699528z"/>
  <path class="fil0" d="M2.85583 6.60731c-0.0459291,0.040874 -0.397811,0.332213 -0.888055,0.127169l0.030626 -0.073752 -0.0308701 0.0738031c-0.0221102,-0.00924803 -0.037878,-0.0272717 -0.0449606,-0.0483346 -0.211961,-0.514531 0.122122,-0.875472 0.133646,-0.887724l-7.87402e-006 -7.87402e-006 0.00023622 -0.000251969 -0.000133858 -0.000122047c0.00124803,-0.00133071 0.00253937,-0.00260236 0.00385433,-0.00383071 0.0377244,-0.0398228 0.0774331,-0.0725591 0.118402,-0.0988425l0.785248 0.785252c-0.0271142,0.0421929 -0.0612402,0.083185 -0.103091,0.122205l0.000122047 0.000133858c-0.00162598,0.00151575 -0.00329921,0.00294882 -0.00501575,0.00430315z"/>
  <path class="fil1" d="M5.25981 5.59646c0.605354,-0.489189 0.98824,-1.07497 1.22969,-1.63867 0.414835,-0.968504 0.410354,-1.87247 0.401091,-2.10515l0.000248031 -5.90551e-005c-0.00175591,-0.0441457 -0.0389764,-0.0785079 -0.083122,-0.076752l-0.00011811 7.87402e-006c-0.242307,-0.00906693 -1.13875,-0.00985039 -2.09872,0.401331 -0.563713,0.241453 -1.14952,0.624339 -1.63872,1.2297 -0.0655315,0.0810906 -0.129327,0.166173 -0.191106,0.255441 0.00038189,-0.000185039 0.000759843,-0.000374016 0.00114173,-0.000559055 -0.071563,0.103122 -0.140197,0.211472 -0.205441,0.325323 -0.108614,0.189539 -0.208862,0.395902 -0.298744,0.620571l-0.000255906 -1.9685e-005c-0.0203976,0.0509961 -0.0402402,0.102906 -0.0595079,0.15574 -0.0393583,0.107925 -0.076315,0.21972 -0.110669,0.335528l-0.000192913 -5.51181e-005c-0.00883465,0.0297835 0.000484252,0.0606378 0.0215197,0.0806969l0.0719528 0.0719528c0.0326181,-0.0155748 0.0680748,-0.0233661 0.103512,-0.0233661 0.061311,0 0.122693,0.0233189 0.169327,0.0699528l0.796906 0.796906c0.046626,0.0466339 0.0699528,0.108012 0.0699528,0.169323 0,0.035437 -0.00779134,0.0708937 -0.0233701,0.103512l0.0733425 0.0733504c0.0230866,0.0230866 0.0567717,0.0291063 0.0853937,0.0180709 0.113618,-0.0338386 0.223366,-0.0701811 0.329382,-0.108843 0.0528346,-0.0192717 0.104744,-0.0391142 0.15574,-0.0595118l-1.5748e-005 -0.000208661c0.224669,-0.0898819 0.431031,-0.190126 0.620571,-0.298744 0.113846,-0.0652402 0.222197,-0.133878 0.325319,-0.205437 -0.000173228,0.000358268 -0.000350394,0.000712598 -0.000523622,0.00107087 0.0892638,-0.0617756 0.174343,-0.125571 0.255429,-0.191098zm-0.778953 -1.41066c-0.140181,-0.140185 -0.21028,-0.323913 -0.21028,-0.507634 0,-0.18372 0.0700984,-0.367453 0.21028,-0.507634 0.140185,-0.140185 0.323917,-0.21028 0.507638,-0.21028 0.18372,0 0.367453,0.0700945 0.507634,0.21028 0.140185,0.140181 0.21028,0.323913 0.21028,0.507634 0,0.18372 -0.0700945,0.367449 -0.21028,0.507634 -0.140181,0.140181 -0.323913,0.21028 -0.507634,0.21028 -0.18372,0 -0.367453,-0.0700984 -0.507638,-0.21028z"/>
  <path class="fil1" d="M4.33333 0c2.39323,0 4.33333,1.9401 4.33333,4.33333 0,2.39323 -1.9401,4.33333 -4.33333,4.33333 -2.39323,0 -4.33333,-1.9401 -4.33333,-4.33333 0,-2.39323 1.9401,-4.33333 4.33333,-4.33333zm0 0.479996c2.12814,0 3.85333,1.7252 3.85333,3.85333 0,2.12814 -1.7252,3.85333 -3.85333,3.85333 -2.12814,0 -3.85333,-1.7252 -3.85333,-3.85333 0,-2.12814 1.7252,-3.85333 3.85333,-3.85333z"/>
 </g>
</svg>
